<svg width="22" height="21" viewBox="0 0 22 21" fill="none" xmlns="http://www.w3.org/2000/svg">
<path d="M16.48 4.99036L13.64 2.08951C13.547 1.99377 13.4364 1.91778 13.3146 1.86592C13.1927 1.81407 13.062 1.78737 12.93 1.78737C12.798 1.78737 12.6673 1.81407 12.5454 1.86592C12.4236 1.91778 12.313 1.99377 12.22 2.08951C12.0338 2.28088 11.9292 2.53977 11.9292 2.80961C11.9292 3.07946 12.0338 3.33834 12.22 3.52972L14.34 5.69515L6.24 13.9687L4.12 11.8033C3.93264 11.613 3.67919 11.5063 3.415 11.5063C3.15082 11.5063 2.89736 11.613 2.71 11.8033C2.61627 11.8982 2.54188 12.0112 2.49111 12.1357C2.44034 12.2602 2.4142 12.3937 2.4142 12.5285C2.4142 12.6633 2.44034 12.7969 2.49111 12.9213C2.54188 13.0458 2.61627 13.1588 2.71 13.2537L5.52 16.1239L8.33 18.9942C8.42262 19.0907 8.53306 19.1674 8.65494 19.22C8.77681 19.2726 8.90769 19.3 9.04 19.3006C9.23863 19.3018 9.4331 19.2425 9.59862 19.1303C9.76414 19.0182 9.89321 18.8582 9.96937 18.6708C10.0455 18.4835 10.0654 18.2772 10.0263 18.0783C9.98721 17.8793 9.89103 17.6968 9.75 17.5539L7.66 15.4191L15.76 7.14558L17.88 9.31101C17.9732 9.40557 18.0838 9.48045 18.2054 9.53138C18.3269 9.5823 18.4571 9.60826 18.5885 9.60779C18.7199 9.60731 18.8499 9.58041 18.9712 9.52861C19.0924 9.47681 19.2024 9.40113 19.295 9.3059C19.3876 9.21066 19.4609 9.09773 19.5107 8.97356C19.5606 8.84938 19.586 8.71639 19.5856 8.58218C19.5851 8.44797 19.5588 8.31517 19.508 8.19135C19.4573 8.06754 19.3832 7.95514 19.29 7.86058L16.48 4.99036ZM2.71 16.1341C2.5217 15.9418 2.2663 15.8338 2 15.8338C1.7337 15.8338 1.47831 15.9418 1.29 16.1341C1.1017 16.3265 0.995911 16.5874 0.995911 16.8594C0.995911 17.1314 1.1017 17.3922 1.29 17.5846L4.12 20.4752C4.21344 20.5699 4.32426 20.6448 4.4461 20.6956C4.56793 20.7464 4.6984 20.7722 4.83 20.7714C4.96161 20.7722 5.09207 20.7464 5.21391 20.6956C5.33575 20.6448 5.44656 20.5699 5.54 20.4752C5.63373 20.3803 5.70813 20.2673 5.75889 20.1428C5.80966 20.0184 5.8358 19.8848 5.8358 19.75C5.8358 19.6152 5.80966 19.4817 5.75889 19.3572C5.70813 19.2327 5.63373 19.1197 5.54 19.0248L2.71 16.1341ZM20.71 3.52972L17.88 0.639078C17.7868 0.543841 17.6761 0.468295 17.5543 0.416754C17.4324 0.365212 17.3019 0.338684 17.17 0.338684C17.0381 0.338684 16.9076 0.365212 16.7858 0.416754C16.6639 0.468295 16.5532 0.543841 16.46 0.639078C16.3668 0.734314 16.2928 0.847376 16.2423 0.971809C16.1919 1.09624 16.1659 1.22961 16.1659 1.36429C16.1659 1.49898 16.1919 1.63234 16.2423 1.75678C16.2928 1.88121 16.3668 1.99427 16.46 2.08951L19.29 4.98015C19.383 5.07589 19.4936 5.15188 19.6154 5.20373C19.7373 5.25559 19.868 5.28229 20 5.28229C20.132 5.28229 20.2627 5.25559 20.3846 5.20373C20.5064 5.15188 20.617 5.07589 20.71 4.98015C20.8037 4.88519 20.8781 4.77222 20.9289 4.64775C20.9797 4.52328 21.0058 4.38978 21.0058 4.25493C21.0058 4.12009 20.9797 3.98659 20.9289 3.86212C20.8781 3.73765 20.8037 3.62468 20.71 3.52972Z" fill="black"/>
</svg>
