<svg width="20" height="21" viewBox="0 0 20 21" fill="none" xmlns="http://www.w3.org/2000/svg">
<path d="M15 5.45004H5C4.73478 5.45004 4.48043 5.55765 4.29289 5.74921C4.10536 5.94076 4 6.20057 4 6.47147C4 6.74237 4.10536 7.00217 4.29289 7.19373C4.48043 7.38528 4.73478 7.4929 5 7.4929H15C15.2652 7.4929 15.5196 7.38528 15.7071 7.19373C15.8946 7.00217 16 6.74237 16 6.47147C16 6.20057 15.8946 5.94076 15.7071 5.74921C15.5196 5.55765 15.2652 5.45004 15 5.45004ZM15 9.53575H5C4.73478 9.53575 4.48043 9.64337 4.29289 9.83492C4.10536 10.0265 4 10.2863 4 10.5572C4 10.8281 4.10536 11.0879 4.29289 11.2794C4.48043 11.471 4.73478 11.5786 5 11.5786H15C15.2652 11.5786 15.5196 11.471 15.7071 11.2794C15.8946 11.0879 16 10.8281 16 10.5572C16 10.2863 15.8946 10.0265 15.7071 9.83492C15.5196 9.64337 15.2652 9.53575 15 9.53575ZM17 0.342896H3C2.20435 0.342896 1.44129 0.665739 0.87868 1.2404C0.316071 1.81507 0 2.59448 0 3.40718V13.6215C0 14.4342 0.316071 15.2136 0.87868 15.7882C1.44129 16.3629 2.20435 16.6858 3 16.6858H14.59L18.29 20.4753C18.3834 20.5699 18.4943 20.6448 18.6161 20.6956C18.7379 20.7465 18.8684 20.7722 19 20.7715C19.1312 20.7749 19.2613 20.7469 19.38 20.6898C19.5626 20.6131 19.7189 20.483 19.8293 20.3158C19.9396 20.1485 19.999 19.9517 20 19.75V3.40718C20 2.59448 19.6839 1.81507 19.1213 1.2404C18.5587 0.665739 17.7956 0.342896 17 0.342896ZM18 17.2884L15.71 14.9391C15.6166 14.8444 15.5057 14.7695 15.3839 14.7187C15.2621 14.6679 15.1316 14.6421 15 14.6429H3C2.73478 14.6429 2.48043 14.5353 2.29289 14.3437C2.10536 14.1522 2 13.8924 2 13.6215V3.40718C2 3.13628 2.10536 2.87648 2.29289 2.68492C2.48043 2.49337 2.73478 2.38575 3 2.38575H17C17.2652 2.38575 17.5196 2.49337 17.7071 2.68492C17.8946 2.87648 18 3.13628 18 3.40718V17.2884Z" fill="black"/>
</svg>
