<svg width="20" height="21" viewBox="0 0 20 21" fill="none" xmlns="http://www.w3.org/2000/svg">
<path d="M19 10.5572C19 15.6662 14.9507 19.7715 10 19.7715C5.04932 19.7715 1 15.6662 1 10.5572C1 5.44818 5.04932 1.3429 10 1.3429C14.9507 1.3429 19 5.44818 19 10.5572Z" stroke="black" stroke-width="2"/>
<path d="M12 10.5572C12 11.7174 11.0847 12.6215 10 12.6215C8.91531 12.6215 8 11.7174 8 10.5572C8 9.39704 8.91531 8.49292 10 8.49292C11.0847 8.49292 12 9.39704 12 10.5572Z" stroke="black" stroke-width="2"/>
<path d="M1 10.5572H8" stroke="black" stroke-width="2"/>
<path d="M12 10.5572H19" stroke="black" stroke-width="2"/>
</svg>
