<svg width="20" height="21" viewBox="0 0 20 21" fill="none" xmlns="http://www.w3.org/2000/svg">
<path d="M12.81 10.8432C13.443 10.1489 13.7996 9.23829 13.81 8.28961C13.81 7.26561 13.4118 6.28355 12.7029 5.55947C11.994 4.83539 11.0325 4.42861 10.03 4.42861C9.02748 4.42861 8.06602 4.83539 7.35714 5.55947C6.64825 6.28355 6.25 7.26561 6.25 8.28961C6.26044 9.23829 6.61702 10.1489 7.25 10.8432C6.36865 11.2915 5.61022 11.9565 5.04292 12.7784C4.47561 13.6004 4.11723 14.5535 4 15.552C3.97083 15.8229 4.0482 16.0945 4.21511 16.3071C4.38202 16.5198 4.62478 16.656 4.89 16.6858C5.15522 16.7156 5.42116 16.6365 5.62932 16.466C5.83749 16.2955 5.97083 16.0476 6 15.7767C6.11933 14.7871 6.58885 13.8762 7.32009 13.2156C8.05133 12.555 8.99382 12.1904 9.97 12.1904C10.9462 12.1904 11.8887 12.555 12.6199 13.2156C13.3512 13.8762 13.8207 14.7871 13.94 15.7767C13.9678 16.0386 14.0936 16.2794 14.2911 16.4488C14.4887 16.6182 14.7426 16.7031 15 16.6858H15.11C15.3721 16.6549 15.6117 16.5196 15.7766 16.3091C15.9414 16.0986 16.0181 15.8302 15.99 15.5622C15.8815 14.5689 15.5344 13.6184 14.9796 12.7952C14.4248 11.9719 13.6796 11.3014 12.81 10.8432ZM10 10.1078C9.64795 10.1078 9.3038 10.0011 9.01108 9.80134C8.71836 9.60156 8.49022 9.31761 8.35549 8.98538C8.22077 8.65316 8.18552 8.28759 8.2542 7.93491C8.32288 7.58222 8.49241 7.25826 8.74135 7.00399C8.99029 6.74972 9.30745 6.57656 9.65274 6.5064C9.99803 6.43625 10.3559 6.47225 10.6812 6.60986C11.0064 6.74748 11.2844 6.98051 11.48 7.2795C11.6756 7.5785 11.78 7.93002 11.78 8.28961C11.78 8.77181 11.5925 9.23426 11.2586 9.57523C10.9248 9.9162 10.4721 10.1078 10 10.1078ZM17 0.342896H3C2.20435 0.342896 1.44129 0.665739 0.87868 1.2404C0.316071 1.81507 0 2.59448 0 3.40718V17.7072C0 18.5199 0.316071 19.2993 0.87868 19.874C1.44129 20.4486 2.20435 20.7715 3 20.7715H17C17.7956 20.7715 18.5587 20.4486 19.1213 19.874C19.6839 19.2993 20 18.5199 20 17.7072V3.40718C20 2.59448 19.6839 1.81507 19.1213 1.2404C18.5587 0.665739 17.7956 0.342896 17 0.342896ZM18 17.7072C18 17.9781 17.8946 18.2379 17.7071 18.4294C17.5196 18.621 17.2652 18.7286 17 18.7286H3C2.73478 18.7286 2.48043 18.621 2.29289 18.4294C2.10536 18.2379 2 17.9781 2 17.7072V3.40718C2 3.13628 2.10536 2.87648 2.29289 2.68492C2.48043 2.49337 2.73478 2.38575 3 2.38575H17C17.2652 2.38575 17.5196 2.49337 17.7071 2.68492C17.8946 2.87648 18 3.13628 18 3.40718V17.7072Z" fill="black"/>
</svg>
